<svg width="27" height="27" viewBox="0 0 27 27" fill="none" xmlns="http://www.w3.org/2000/svg">
<g clip-path="url(#clip0_801_1352)">
<path d="M13.506 9.01611C11.0218 9.01611 9.02002 11.0318 9.02002 13.5181C9.02002 15.9924 11.0459 18.0322 13.518 18.0201C15.978 18.0201 18.0281 15.9683 18.016 13.5061C18.0039 11.0438 15.978 9.01611 13.506 9.01611Z" fill="#7770E0"/>
<path d="M26.8432 7.08494C26.6623 4.67099 25.6494 2.66741 23.5511 1.3156C22.2608 0.494859 20.8258 0.181046 19.3184 0.0965579C18.8843 0.0724184 18.4502 0.0362092 18.0161 0C15.0134 0 12.0107 0 8.99598 0C8.2845 0.0603487 7.56096 0.0965579 6.84949 0.168976C3.11121 0.567278 0.566771 3.11399 0.168825 6.86768C0.0964716 7.57979 0.0482358 8.30398 0 9.01609C0 12.0215 0 15.0268 0 18.0443C0.0844127 18.9253 0.108531 19.8185 0.253238 20.6755C0.880304 24.2843 3.40062 26.662 7.06655 26.8552C10.2742 27.0241 13.4819 27 16.7017 26.9879C18.0643 26.9879 19.4511 26.9638 20.7776 26.7345C24.3109 26.131 26.6141 23.5601 26.8312 19.9513C26.9879 17.3925 26.9759 14.8216 26.9879 12.2508C27 10.5369 26.9759 8.79884 26.8432 7.08494ZM13.5181 20.4703C9.6954 20.4823 6.57213 17.3684 6.57213 13.5302C6.57213 9.67993 9.64716 6.57801 13.494 6.57801C17.3287 6.57801 20.4399 9.66786 20.452 13.506C20.452 17.3321 17.3408 20.4582 13.5181 20.4703ZM20.7293 7.92982C19.8249 7.94189 19.0893 7.2177 19.0893 6.31247C19.0893 5.41931 19.7767 4.7072 20.669 4.68306C21.5855 4.65892 22.3211 5.37103 22.3332 6.27626C22.3573 7.16942 21.6338 7.91775 20.7293 7.92982Z" fill="#7770E0"/>
</g>
<defs>
<clipPath id="clip0_801_1352">
<rect width="27" height="27" fill="white"/>
</clipPath>
</defs>
</svg>
