<svg width="29" height="28" viewBox="0 0 29 28" fill="none" xmlns="http://www.w3.org/2000/svg">
<path d="M28.7111 8.4001C28.7111 8.4001 28.4279 6.46963 27.5557 5.62197C26.4512 4.50635 25.2164 4.50088 24.65 4.43525C20.5945 4.15088 14.5057 4.15088 14.5057 4.15088H14.4943C14.4943 4.15088 8.40547 4.15088 4.35 4.43525C3.78359 4.50088 2.54883 4.50635 1.44434 5.62197C0.57207 6.46963 0.294531 8.4001 0.294531 8.4001C0.294531 8.4001 0 10.6696 0 12.9337V15.0556C0 17.3196 0.288867 19.5892 0.288867 19.5892C0.288867 19.5892 0.57207 21.5196 1.43867 22.3673C2.54316 23.4829 3.99316 23.4446 4.63887 23.5649C6.96113 23.7782 14.5 23.8438 14.5 23.8438C14.5 23.8438 20.5945 23.8329 24.65 23.554C25.2164 23.4884 26.4512 23.4829 27.5557 22.3673C28.4279 21.5196 28.7111 19.5892 28.7111 19.5892C28.7111 19.5892 29 17.3251 29 15.0556V12.9337C29 10.6696 28.7111 8.4001 28.7111 8.4001ZM11.5037 17.6313V9.76182L19.3371 13.7103L11.5037 17.6313Z" fill="#7770E0"/>
</svg>
