<svg width="403" height="398" viewBox="0 0 403 398" fill="none" xmlns="http://www.w3.org/2000/svg">
<path d="M1 387.939C25.5283 369.619 53.4153 390.076 81.7093 383.359C110.818 376.336 110.41 361.477 149.696 351.401C174.53 344.989 246.079 389.974 271.625 392.01C302.362 394.351 318.036 372.774 348.06 381.425C365.973 386.616 383.784 391.806 401.697 396.997" stroke="url(#paint0_linear_14_2032)" stroke-miterlimit="10"/>
<path d="M1 377.456C17.2843 365.243 35.1973 370.23 53.619 372.876C62.7789 374.199 72.0404 374.912 81.4039 372.672C110.41 365.853 110.512 350.994 149.289 341.834C157.024 340.002 168.932 343.157 182.469 348.144C211.17 358.831 246.995 377.252 266.74 380.916C268.369 381.222 269.895 381.425 271.32 381.527C296.459 383.155 311.726 369.212 332.895 368.805C337.577 368.703 342.564 369.314 347.958 370.84C365.871 375.929 383.784 381.222 401.697 386.412" stroke="url(#paint1_linear_14_2032)" stroke-miterlimit="10"/>
<path d="M1 366.973C17.1826 354.861 34.9936 359.747 53.4152 362.291C62.4734 363.614 71.7353 364.327 81.0988 362.189C109.902 355.574 110.614 340.613 148.882 332.47C156.617 330.842 168.525 334.099 181.96 339.188C210.763 350.18 246.385 367.482 266.435 370.739C268.063 371.044 269.59 371.247 271.015 371.247C296.052 372.469 311.522 358.831 332.692 358.424C337.373 358.322 342.361 358.831 347.755 360.357C365.769 365.344 383.682 370.637 401.595 375.929" stroke="url(#paint2_linear_14_2032)" stroke-miterlimit="10"/>
<path d="M1 356.49C17.1826 344.378 34.8918 349.162 53.2117 351.706C62.2699 353.029 71.4299 353.64 80.7934 351.605C109.393 345.091 110.716 330.231 148.475 322.903C156.312 321.377 168.118 324.939 181.451 330.13C210.457 341.427 245.774 357.609 266.129 360.459C267.758 360.663 269.284 360.866 270.709 360.968C295.543 361.884 311.217 348.551 332.59 348.042C337.272 347.941 342.259 348.449 347.653 349.976C365.667 354.861 383.58 360.256 401.697 365.446" stroke="url(#paint3_linear_14_2032)" stroke-miterlimit="10"/>
<path d="M1 345.905C17.0808 333.895 34.7901 338.475 53.0082 341.122C61.9646 342.343 71.2263 343.055 80.488 341.02C108.884 334.71 110.817 319.85 148.068 313.438C156.007 312.115 167.711 315.779 180.942 321.071C210.05 332.674 245.163 347.737 265.824 350.18C267.453 350.383 268.979 350.587 270.404 350.587C295.136 351.096 311.013 338.068 332.386 337.559C337.17 337.458 342.157 337.966 347.551 339.391C365.667 344.175 383.58 349.569 401.697 354.861" stroke="url(#paint4_linear_14_2032)" stroke-miterlimit="10"/>
<path d="M1 335.422C16.979 323.514 34.6884 327.992 52.8047 330.537C61.7611 331.758 70.9209 332.369 80.1826 330.435C108.375 324.328 110.919 309.571 147.661 303.973C155.701 302.751 167.304 306.721 180.433 312.115C209.643 324.023 244.553 337.966 265.519 340.002C267.147 340.205 268.674 340.307 270.099 340.307C294.729 340.511 310.81 327.789 332.183 327.178C336.966 327.076 341.953 327.585 347.348 329.01C365.566 333.692 383.478 339.188 401.595 344.48" stroke="url(#paint5_linear_14_2032)" stroke-miterlimit="10"/>
<path d="M1 324.939C16.8772 313.031 34.4849 317.407 52.6012 319.952C61.5576 321.173 70.6155 321.784 79.8773 319.85C107.866 313.845 111.123 299.189 147.254 294.508C155.294 293.49 166.897 297.663 179.924 303.057C209.236 315.27 243.942 328.094 265.213 329.722C266.842 329.824 268.369 329.926 269.793 329.926C294.322 329.824 310.606 317.306 331.979 316.695C336.763 316.593 341.852 317.102 347.246 318.425C365.464 323.005 383.377 328.603 401.697 333.895" stroke="url(#paint6_linear_14_2032)" stroke-miterlimit="10"/>
<path d="M1 314.456C16.8772 302.65 34.3829 306.823 52.3974 309.367C61.252 310.588 70.4122 311.199 79.5721 309.265C107.357 303.566 111.225 288.91 146.847 285.042C154.989 284.126 166.49 288.503 179.415 294.1C208.829 306.619 243.23 318.425 265.01 319.646C266.638 319.748 268.165 319.85 269.59 319.85C294.016 319.341 310.504 307.128 331.979 306.517C336.865 306.415 341.852 306.823 347.246 308.247C365.566 312.827 383.478 318.323 401.798 323.616" stroke="url(#paint7_linear_14_2032)" stroke-miterlimit="10"/>
<path d="M1 303.973C16.7754 292.167 34.2812 296.339 52.1939 298.782C61.0485 300.003 70.1068 300.512 79.2667 298.68C106.848 293.083 111.428 278.63 146.44 275.577C154.684 274.865 166.083 279.444 178.906 285.042C208.422 297.866 242.619 308.553 264.705 309.367C266.333 309.469 267.86 309.469 269.285 309.469C293.507 308.655 310.301 296.747 331.776 296.034C336.661 295.831 341.648 296.34 347.042 297.663C365.362 302.141 383.377 307.739 401.697 313.031" stroke="url(#paint8_linear_14_2032)" stroke-miterlimit="10"/>
<path d="M1 293.388C16.6737 281.684 34.0777 285.653 51.9904 288.096C60.7433 289.317 69.8014 289.826 78.9614 287.994C106.339 282.6 111.632 268.249 145.931 266.01C154.276 265.501 165.574 270.285 178.296 275.882C208.015 289.113 241.907 298.579 264.298 298.986C265.926 298.986 267.453 299.087 268.878 298.986C292.999 297.866 309.995 286.162 331.47 285.449C336.356 285.246 341.444 285.755 346.839 286.976C365.26 291.352 383.275 296.95 401.595 302.344" stroke="url(#paint9_linear_14_2032)" stroke-miterlimit="10"/>
<path d="M1 282.905C16.5719 271.302 33.9759 275.17 51.7869 277.511C60.5398 278.63 69.496 279.139 78.656 277.409C105.83 272.218 111.733 258.071 145.523 256.545C153.971 256.138 165.167 261.226 177.787 266.926C207.608 280.462 241.194 288.91 263.992 288.808C265.621 288.808 267.147 288.808 268.572 288.706C292.592 287.281 309.69 275.882 331.267 275.068C336.152 274.865 341.241 275.373 346.635 276.595C365.057 280.869 383.071 286.569 401.595 291.963" stroke="url(#paint10_linear_14_2032)" stroke-miterlimit="10"/>
<path d="M1 272.422C16.4701 260.819 33.8742 264.585 51.5834 266.926C60.3362 268.045 69.2924 268.554 78.3506 266.824C105.322 261.837 111.937 247.894 145.116 247.079C153.666 246.876 164.76 252.067 177.278 257.868C207.201 271.709 240.583 279.139 263.687 278.529C265.315 278.529 266.842 278.529 268.267 278.427C292.184 276.697 309.487 265.501 331.165 264.687C336.152 264.483 341.241 264.89 346.533 266.112C365.057 270.285 383.071 275.984 401.595 281.378" stroke="url(#paint11_linear_14_2032)" stroke-miterlimit="10"/>
<path d="M1 261.939C16.4701 250.438 33.7722 254 51.3797 256.341C60.0307 257.461 68.9873 257.97 78.0455 256.341C104.915 251.456 112.243 237.818 144.709 237.716C153.361 237.716 164.352 243.11 176.769 249.013C206.793 263.16 239.973 269.47 263.381 268.453C265.01 268.351 266.537 268.351 267.961 268.249C291.675 266.213 309.283 255.222 330.962 254.407C335.949 254.204 341.037 254.611 346.432 255.832C365.057 259.903 383.071 265.705 401.595 271.099" stroke="url(#paint12_linear_14_2032)" stroke-miterlimit="10"/>
<path d="M1 251.456C16.3683 239.955 33.5687 243.517 51.1762 245.756C59.8272 246.876 68.6819 247.283 77.7401 245.756C104.406 241.075 112.446 227.742 144.302 228.251C153.055 228.352 164.047 234.052 176.26 239.955C206.386 254.509 239.26 259.7 263.076 258.173C264.704 258.071 266.231 257.97 267.656 257.868C291.268 255.425 309.079 244.84 330.758 243.924C335.745 243.721 340.834 244.128 346.228 245.247C364.853 249.217 382.868 255.12 401.595 260.514" stroke="url(#paint13_linear_14_2032)" stroke-miterlimit="10"/>
<path d="M1 240.871C16.2666 229.472 33.467 232.831 50.9727 235.07C59.5219 236.189 68.4783 236.596 77.4347 235.07C103.897 230.592 112.65 217.462 143.895 218.684C152.75 218.989 163.64 224.892 175.751 230.897C205.979 245.756 238.65 249.929 262.771 247.894C264.399 247.792 265.926 247.69 267.351 247.487C290.861 244.739 308.876 234.357 330.554 233.441C335.541 233.238 340.732 233.645 346.126 234.764C364.853 238.632 382.868 244.535 401.595 250.031" stroke="url(#paint14_linear_14_2032)" stroke-miterlimit="10"/>
<path d="M1 230.388C16.1648 219.091 33.3653 222.246 50.7692 224.485C59.3184 225.604 68.1729 225.91 77.1293 224.485C103.388 220.108 112.853 207.386 143.488 209.218C152.444 209.727 163.233 215.732 175.243 221.839C205.674 237.003 237.937 240.158 262.466 237.614C264.094 237.411 265.621 237.309 267.045 237.207C290.454 234.154 308.672 224.078 330.453 223.06C335.542 222.856 340.63 223.264 346.024 224.281C364.751 228.047 382.868 234.052 401.595 239.446" stroke="url(#paint15_linear_14_2032)" stroke-miterlimit="10"/>
<path d="M1 219.905C16.063 208.608 33.1618 211.763 50.5656 213.9C59.1149 214.918 67.8676 215.325 76.8239 213.9C102.879 209.727 113.057 197.31 143.081 199.753C152.139 200.466 162.826 206.674 174.835 212.78C205.368 228.352 237.428 230.286 262.364 227.335C263.992 227.131 265.519 227.029 266.944 226.826C290.251 223.467 308.571 213.595 330.453 212.577C335.542 212.373 340.732 212.679 346.024 213.798C364.853 217.462 382.97 223.467 401.798 228.963" stroke="url(#paint16_linear_14_2032)" stroke-miterlimit="10"/>
<path d="M1 209.422C16.063 198.226 33.0598 201.178 50.3619 203.315C58.8094 204.333 67.5624 204.74 76.5188 203.315C102.37 199.346 113.26 187.336 142.674 190.186C151.834 191.102 162.419 197.514 174.326 203.722C204.961 219.599 236.818 220.516 262.058 217.055C263.687 216.852 265.213 216.648 266.74 216.444C289.843 212.78 308.469 203.112 330.351 202.094C335.44 201.89 340.63 202.196 346.024 203.213C364.853 206.776 382.97 212.882 401.9 218.378" stroke="url(#paint17_linear_14_2032)" stroke-miterlimit="10"/>
<path d="M1 198.939C15.9612 187.743 32.9581 190.593 50.1584 192.73C58.6059 193.748 67.3588 194.054 76.2134 192.73C101.861 188.863 113.464 177.26 142.267 180.721C151.528 181.84 162.011 188.456 173.818 194.664C204.554 210.847 236.105 210.847 261.753 206.776C263.382 206.572 264.908 206.369 266.435 206.063C289.436 202.094 308.265 192.73 330.147 191.611C335.236 191.306 340.427 191.713 345.821 192.73C364.751 196.191 382.868 202.298 401.798 207.895" stroke="url(#paint18_linear_14_2032)" stroke-miterlimit="10"/>
<path d="M0.999999 188.354C15.8595 177.26 32.8563 180.008 49.9549 182.044C58.3006 183.062 67.0534 183.367 75.908 182.044C101.352 178.38 113.769 167.184 141.758 171.154C151.223 172.477 161.503 179.296 173.207 185.606C204.045 202.196 235.393 201.076 261.346 196.496C262.974 196.191 264.501 195.987 266.028 195.784C288.928 191.509 307.96 182.349 329.944 181.23C335.134 180.924 340.325 181.331 345.719 182.247C364.752 185.708 382.868 191.814 401.9 197.31" stroke="url(#paint19_linear_14_2032)" stroke-miterlimit="10"/>
<path d="M0.999999 177.871C15.7577 166.879 32.6528 169.423 49.7514 171.459C58.0971 172.477 66.7481 172.68 75.6027 171.459C100.843 167.999 113.973 157.21 141.351 161.688C150.918 163.215 161.096 170.238 172.698 176.548C203.638 193.443 234.782 191.306 261.04 186.217C262.669 185.911 264.196 185.708 265.722 185.402C288.52 180.924 307.756 171.866 329.74 170.747C334.931 170.441 340.121 170.747 345.515 171.764C364.548 175.123 382.664 181.331 401.798 186.827" stroke="url(#paint20_linear_14_2032)" stroke-miterlimit="10"/>
<path d="M0.999999 167.388C15.6559 156.396 32.5511 158.839 49.5479 160.874C57.7918 161.892 66.5445 162.096 75.2973 160.874C100.334 157.516 114.176 147.236 140.944 152.223C150.612 154.055 160.688 161.18 172.189 167.49C203.231 184.792 234.07 181.535 260.735 175.937C262.364 175.632 263.89 175.327 265.417 175.021C288.011 170.238 307.553 161.485 329.537 160.264C334.727 159.958 340.02 160.264 345.312 161.18C364.446 164.436 382.563 170.645 401.697 176.243" stroke="url(#paint21_linear_14_2032)" stroke-miterlimit="10"/>
<path d="M0.999999 156.905C15.6559 146.015 32.4491 148.356 49.3441 150.289C57.5881 151.205 66.2393 151.409 74.9921 150.391C99.8258 147.236 114.38 137.364 140.536 142.86C150.307 144.895 160.281 152.121 171.68 158.635C202.824 176.243 233.459 172.07 260.43 165.861C262.058 165.454 263.585 165.251 265.112 164.844C287.604 159.755 307.247 151.205 329.435 149.984C334.727 149.679 339.918 149.984 345.312 150.798C364.446 153.953 382.664 160.264 401.9 165.861" stroke="url(#paint22_linear_14_2032)" stroke-miterlimit="10"/>
<path d="M0.999999 146.32C15.5541 135.43 32.2456 137.669 49.1406 139.603C57.3846 140.519 65.9339 140.722 74.6868 139.705C99.3168 136.753 114.583 127.39 140.129 133.293C150.002 135.532 159.874 142.962 171.172 149.475C202.417 167.49 232.848 162.197 260.125 155.48C261.651 155.073 263.28 154.768 264.806 154.36C287.197 148.966 307.044 140.722 329.231 139.399C334.524 139.094 339.816 139.399 345.108 140.214C364.344 143.267 382.562 149.577 401.798 155.175" stroke="url(#paint23_linear_14_2032)" stroke-miterlimit="10"/>
<path d="M0.999999 135.837C15.4523 125.049 32.1439 127.186 48.9371 129.018C57.0793 129.934 65.6286 130.138 74.3814 129.12C98.8079 126.27 114.787 117.517 139.722 123.827C149.696 126.372 159.467 133.903 170.663 140.519C202.01 158.94 232.238 152.63 259.819 145.302C261.346 144.895 262.974 144.59 264.501 144.183C286.79 138.483 306.84 130.443 329.028 129.12C334.32 128.814 339.612 129.018 345.007 129.832C364.344 132.784 382.461 139.196 401.798 144.794" stroke="url(#paint24_linear_14_2032)" stroke-miterlimit="10"/>
<path d="M0.999999 125.354C15.3506 114.667 32.0422 116.601 48.7336 118.433C56.8758 119.349 65.4249 119.451 74.076 118.535C98.4007 115.889 114.99 107.543 139.315 114.362C149.391 117.11 159.06 124.845 170.154 131.461C201.603 150.188 231.525 142.86 259.616 135.125C261.142 134.718 262.771 134.31 264.298 133.903C286.485 127.898 306.739 120.062 328.926 118.739C334.218 118.433 339.511 118.637 344.905 119.451C364.243 122.301 382.461 128.713 401.9 134.412" stroke="url(#paint25_linear_14_2032)" stroke-miterlimit="10"/>
<path d="M0.999999 114.871C15.2488 104.184 31.9404 106.016 48.5301 107.848C56.5705 108.764 65.1196 108.866 73.7706 107.95C97.8918 105.507 115.092 97.6706 138.908 104.897C148.984 107.95 158.653 115.787 169.645 122.504C201.196 141.638 230.914 133.293 259.31 124.947C260.837 124.438 262.465 124.031 263.992 123.624C286.078 117.415 306.535 109.782 328.824 108.357C334.218 108.052 339.511 108.255 344.803 108.968C364.242 111.716 382.461 118.23 401.9 123.929" stroke="url(#paint26_linear_14_2032)" stroke-miterlimit="10"/>
<path d="M0.999999 104.388C15.2488 93.8031 31.7367 95.5333 48.3263 97.2635C56.3667 98.1795 64.8144 98.1795 73.4655 97.3653C97.3831 95.0244 115.296 87.7983 138.501 95.4316C148.679 98.7902 158.246 106.729 169.136 113.446C200.789 132.886 230.304 123.624 259.005 114.667C260.532 114.158 262.16 113.751 263.687 113.243C285.569 106.729 306.331 99.299 328.621 97.8741C334.015 97.5688 339.307 97.7725 344.701 98.4849C364.141 101.131 382.359 107.747 401.9 113.344" stroke="url(#paint27_linear_14_2032)" stroke-miterlimit="10"/>
<path d="M0.999999 93.8031C15.147 83.2183 31.635 84.8467 48.1228 86.5769C56.1632 87.3912 64.5091 87.4929 73.1601 86.6787C96.8742 84.5414 115.499 77.9259 138.094 85.8646C148.373 89.5285 157.737 97.5689 168.627 104.286C200.382 124.133 229.693 113.751 258.7 104.286C260.226 103.777 261.855 103.268 263.381 102.861C285.162 96.0422 306.026 88.9179 328.417 87.3912C333.811 86.9841 339.205 87.1876 344.498 87.9001C364.039 90.4445 382.257 97.06 401.9 102.76" stroke="url(#paint28_linear_14_2032)" stroke-miterlimit="10"/>
<path d="M0.999999 83.32C15.0452 72.837 31.5332 74.2618 47.9193 75.992C55.858 76.8062 64.3055 76.8063 72.8547 76.0939C96.3652 74.0583 115.601 68.0534 137.585 76.3991C147.966 80.2667 157.228 88.5106 168.016 95.3297C199.771 115.583 228.981 104.184 258.293 94.1084C259.819 93.5995 261.448 93.0906 262.974 92.5817C284.653 85.4573 305.721 78.5364 328.112 77.0098C333.506 76.6027 338.9 76.8062 344.193 77.5187C363.836 79.8595 382.054 86.6787 401.697 92.3782" stroke="url(#paint29_linear_14_2032)" stroke-miterlimit="10"/>
<path d="M0.999999 72.837C14.9435 62.4557 31.3297 63.7789 47.7158 65.4073C55.6545 66.2216 64.0001 66.2215 72.5493 65.5091C95.8563 63.6771 115.703 58.1812 137.178 66.934C147.559 71.1069 156.821 79.4526 167.507 86.2716C199.364 106.932 228.37 94.5156 257.987 83.829C259.514 83.2183 261.142 82.7094 262.669 82.2006C284.246 74.8726 305.517 68.0535 328.01 66.5269C333.506 66.1197 338.798 66.3233 344.193 66.934C363.836 69.1731 382.155 75.9921 401.798 81.7934" stroke="url(#paint30_linear_14_2032)" stroke-miterlimit="10"/>
<path d="M0.999999 62.354C14.9435 51.9727 31.228 53.194 47.5123 54.8225C55.3492 55.6367 63.6947 55.6366 72.244 55.026C95.3474 53.3975 115.805 48.4105 136.771 57.4687C147.254 62.0486 156.414 70.3943 166.999 77.3152C198.957 98.2813 227.76 84.9485 257.682 73.6512C259.209 73.0406 260.837 72.5316 262.364 71.921C283.839 64.2877 305.314 57.7739 327.806 56.1455C333.302 55.7384 338.696 55.942 343.989 56.5526C363.734 58.7917 381.952 65.6108 401.697 71.3103" stroke="url(#paint31_linear_14_2032)" stroke-miterlimit="10"/>
<path d="M0.999999 51.8709C14.8417 41.5914 31.126 42.6092 47.3086 44.2376C55.1454 45.0518 63.4913 44.95 71.9388 44.4411C94.8387 42.9144 115.906 38.6398 136.364 48.0033C146.948 52.8886 156.007 61.3361 166.49 68.257C198.549 89.6302 227.149 75.2797 257.377 63.3717C258.903 62.7611 260.532 62.1503 262.058 61.6415C283.431 53.7028 305.11 47.3927 327.603 45.7642C333.099 45.3571 338.493 45.459 343.887 46.0696C363.632 48.2069 381.952 55.026 401.798 60.8273" stroke="url(#paint32_linear_14_2032)" stroke-miterlimit="10"/>
<path d="M0.999999 41.2861C14.7399 31.0066 31.0243 32.0244 47.1051 33.551C54.9419 34.3653 63.186 34.2634 71.6335 33.7545C94.3297 32.3297 116.008 28.6658 135.957 38.4364C146.541 43.627 155.6 52.1762 165.981 59.1988C198.142 80.9791 226.64 65.6108 257.071 53.0922C258.598 52.4815 260.125 51.8709 261.753 51.2603C283.025 43.1181 304.907 37.0114 327.399 35.2812C332.997 34.8741 338.391 34.9759 343.684 35.4848C363.53 37.5204 381.85 44.4412 401.697 50.2425" stroke="url(#paint33_linear_14_2032)" stroke-miterlimit="10"/>
<path d="M0.999999 30.8031C14.6381 20.6254 30.8208 21.4395 46.9016 22.9662C54.6366 23.6786 62.8806 23.5769 71.3281 23.1698C93.8208 21.9485 116.11 18.8951 135.55 28.971C146.134 34.467 155.192 43.1181 165.472 50.1407C197.633 72.3281 226.029 55.9419 256.766 42.8127C258.293 42.202 259.819 41.4896 261.448 40.8789C282.617 32.4314 304.601 26.5284 327.297 24.7982C332.895 24.3911 338.289 24.4928 343.582 25.0017C363.53 26.9355 381.748 33.9581 401.697 39.7594" stroke="url(#paint34_linear_14_2032)" stroke-miterlimit="10"/>
<path d="M0.999998 20.32C14.5364 10.2441 30.7191 10.9565 46.6981 12.3813C54.4331 13.0938 62.5752 12.9921 71.0227 12.585C93.3119 11.5672 116.11 9.02269 135.142 19.5057C145.829 25.4088 154.785 34.0599 164.963 41.0825C197.226 63.6771 225.419 46.2731 256.562 32.5332C258.089 31.8208 259.616 31.2101 261.244 30.4977C282.312 21.8466 304.499 16.0453 327.196 14.3151C332.793 13.908 338.188 14.0098 343.582 14.4169C363.53 16.2488 381.85 23.2715 401.9 29.0728" stroke="url(#paint35_linear_14_2032)" stroke-miterlimit="10"/>
<path d="M0.999998 9.83686C14.5364 -0.239071 30.6173 0.371689 46.4946 1.79657C74.4833 4.44277 109.189 -4.92075 134.633 10.0405C145.32 16.2489 154.276 25.0017 164.352 32.1261C196.717 55.1277 224.706 36.7061 256.155 22.3555C278.445 12.1778 302.464 5.96937 326.89 4.0356C353.76 1.89828 376.354 11.3636 401.697 18.7933" stroke="url(#paint36_linear_14_2032)" stroke-miterlimit="10"/>
<defs>
<linearGradient id="paint0_linear_14_2032" x1="201.294" y1="397.558" x2="201.294" y2="350.198" gradientUnits="userSpaceOnUse">
<stop stop-color="#7770E0"/>
<stop offset="1" stop-color="#554FD8"/>
</linearGradient>
<linearGradient id="paint1_linear_14_2032" x1="201.294" y1="386.96" x2="201.294" y2="340.744" gradientUnits="userSpaceOnUse">
<stop stop-color="#7770E0"/>
<stop offset="1" stop-color="#554FD8"/>
</linearGradient>
<linearGradient id="paint2_linear_14_2032" x1="201.243" y1="376.462" x2="201.243" y2="331.499" gradientUnits="userSpaceOnUse">
<stop stop-color="#7770E0"/>
<stop offset="1" stop-color="#554FD8"/>
</linearGradient>
<linearGradient id="paint3_linear_14_2032" x1="201.294" y1="365.967" x2="201.294" y2="322.011" gradientUnits="userSpaceOnUse">
<stop stop-color="#7770E0"/>
<stop offset="1" stop-color="#554FD8"/>
</linearGradient>
<linearGradient id="paint4_linear_14_2032" x1="201.294" y1="355.368" x2="201.294" y2="312.645" gradientUnits="userSpaceOnUse">
<stop stop-color="#7770E0"/>
<stop offset="1" stop-color="#554FD8"/>
</linearGradient>
<linearGradient id="paint5_linear_14_2032" x1="201.243" y1="344.974" x2="201.243" y2="303.241" gradientUnits="userSpaceOnUse">
<stop stop-color="#7770E0"/>
<stop offset="1" stop-color="#554FD8"/>
</linearGradient>
<linearGradient id="paint6_linear_14_2032" x1="201.294" y1="334.375" x2="201.294" y2="293.859" gradientUnits="userSpaceOnUse">
<stop stop-color="#7770E0"/>
<stop offset="1" stop-color="#554FD8"/>
</linearGradient>
<linearGradient id="paint7_linear_14_2032" x1="201.344" y1="324.085" x2="201.344" y2="284.437" gradientUnits="userSpaceOnUse">
<stop stop-color="#7770E0"/>
<stop offset="1" stop-color="#554FD8"/>
</linearGradient>
<linearGradient id="paint8_linear_14_2032" x1="201.294" y1="313.486" x2="201.294" y2="275.034" gradientUnits="userSpaceOnUse">
<stop stop-color="#7770E0"/>
<stop offset="1" stop-color="#554FD8"/>
</linearGradient>
<linearGradient id="paint9_linear_14_2032" x1="201.243" y1="302.786" x2="201.243" y2="265.518" gradientUnits="userSpaceOnUse">
<stop stop-color="#7770E0"/>
<stop offset="1" stop-color="#554FD8"/>
</linearGradient>
<linearGradient id="paint10_linear_14_2032" x1="201.243" y1="292.393" x2="201.243" y2="256.079" gradientUnits="userSpaceOnUse">
<stop stop-color="#7770E0"/>
<stop offset="1" stop-color="#554FD8"/>
</linearGradient>
<linearGradient id="paint11_linear_14_2032" x1="201.243" y1="281.795" x2="201.243" y2="246.645" gradientUnits="userSpaceOnUse">
<stop stop-color="#7770E0"/>
<stop offset="1" stop-color="#554FD8"/>
</linearGradient>
<linearGradient id="paint12_linear_14_2032" x1="201.243" y1="271.504" x2="201.243" y2="237.298" gradientUnits="userSpaceOnUse">
<stop stop-color="#7770E0"/>
<stop offset="1" stop-color="#554FD8"/>
</linearGradient>
<linearGradient id="paint13_linear_14_2032" x1="201.243" y1="260.906" x2="201.243" y2="227.833" gradientUnits="userSpaceOnUse">
<stop stop-color="#7770E0"/>
<stop offset="1" stop-color="#554FD8"/>
</linearGradient>
<linearGradient id="paint14_linear_14_2032" x1="201.243" y1="250.412" x2="201.243" y2="218.211" gradientUnits="userSpaceOnUse">
<stop stop-color="#7770E0"/>
<stop offset="1" stop-color="#554FD8"/>
</linearGradient>
<linearGradient id="paint15_linear_14_2032" x1="201.243" y1="239.815" x2="201.243" y2="208.659" gradientUnits="userSpaceOnUse">
<stop stop-color="#7770E0"/>
<stop offset="1" stop-color="#554FD8"/>
</linearGradient>
<linearGradient id="paint16_linear_14_2032" x1="201.344" y1="229.321" x2="201.344" y2="199.068" gradientUnits="userSpaceOnUse">
<stop stop-color="#7770E0"/>
<stop offset="1" stop-color="#554FD8"/>
</linearGradient>
<linearGradient id="paint17_linear_14_2032" x1="201.395" y1="219.055" x2="201.395" y2="189.391" gradientUnits="userSpaceOnUse">
<stop stop-color="#7770E0"/>
<stop offset="1" stop-color="#554FD8"/>
</linearGradient>
<linearGradient id="paint18_linear_14_2032" x1="201.344" y1="209.393" x2="201.344" y2="179.722" gradientUnits="userSpaceOnUse">
<stop stop-color="#7770E0"/>
<stop offset="1" stop-color="#554FD8"/>
</linearGradient>
<linearGradient id="paint19_linear_14_2032" x1="201.395" y1="199.791" x2="201.395" y2="169.95" gradientUnits="userSpaceOnUse">
<stop stop-color="#7770E0"/>
<stop offset="1" stop-color="#554FD8"/>
</linearGradient>
<linearGradient id="paint20_linear_14_2032" x1="201.344" y1="190.235" x2="201.344" y2="160.251" gradientUnits="userSpaceOnUse">
<stop stop-color="#7770E0"/>
<stop offset="1" stop-color="#554FD8"/>
</linearGradient>
<linearGradient id="paint21_linear_14_2032" x1="201.294" y1="180.773" x2="201.294" y2="150.512" gradientUnits="userSpaceOnUse">
<stop stop-color="#7770E0"/>
<stop offset="1" stop-color="#554FD8"/>
</linearGradient>
<linearGradient id="paint22_linear_14_2032" x1="201.395" y1="171.581" x2="201.395" y2="140.851" gradientUnits="userSpaceOnUse">
<stop stop-color="#7770E0"/>
<stop offset="1" stop-color="#554FD8"/>
</linearGradient>
<linearGradient id="paint23_linear_14_2032" x1="201.344" y1="162.123" x2="201.344" y2="130.999" gradientUnits="userSpaceOnUse">
<stop stop-color="#7770E0"/>
<stop offset="1" stop-color="#554FD8"/>
</linearGradient>
<linearGradient id="paint24_linear_14_2032" x1="201.344" y1="152.951" x2="201.344" y2="121.203" gradientUnits="userSpaceOnUse">
<stop stop-color="#7770E0"/>
<stop offset="1" stop-color="#554FD8"/>
</linearGradient>
<linearGradient id="paint25_linear_14_2032" x1="201.395" y1="143.645" x2="201.395" y2="111.349" gradientUnits="userSpaceOnUse">
<stop stop-color="#7770E0"/>
<stop offset="1" stop-color="#554FD8"/>
</linearGradient>
<linearGradient id="paint26_linear_14_2032" x1="201.395" y1="134.537" x2="201.395" y2="101.505" gradientUnits="userSpaceOnUse">
<stop stop-color="#7770E0"/>
<stop offset="1" stop-color="#554FD8"/>
</linearGradient>
<linearGradient id="paint27_linear_14_2032" x1="201.395" y1="125.309" x2="201.395" y2="91.6083" gradientUnits="userSpaceOnUse">
<stop stop-color="#7770E0"/>
<stop offset="1" stop-color="#554FD8"/>
</linearGradient>
<linearGradient id="paint28_linear_14_2032" x1="201.395" y1="116.011" x2="201.395" y2="81.6415" gradientUnits="userSpaceOnUse">
<stop stop-color="#7770E0"/>
<stop offset="1" stop-color="#554FD8"/>
</linearGradient>
<linearGradient id="paint29_linear_14_2032" x1="201.294" y1="106.971" x2="201.294" y2="71.6649" gradientUnits="userSpaceOnUse">
<stop stop-color="#7770E0"/>
<stop offset="1" stop-color="#554FD8"/>
</linearGradient>
<linearGradient id="paint30_linear_14_2032" x1="201.344" y1="97.8456" x2="201.344" y2="61.677" gradientUnits="userSpaceOnUse">
<stop stop-color="#7770E0"/>
<stop offset="1" stop-color="#554FD8"/>
</linearGradient>
<linearGradient id="paint31_linear_14_2032" x1="201.294" y1="88.7918" x2="201.294" y2="51.734" gradientUnits="userSpaceOnUse">
<stop stop-color="#7770E0"/>
<stop offset="1" stop-color="#554FD8"/>
</linearGradient>
<linearGradient id="paint32_linear_14_2032" x1="201.344" y1="79.6941" x2="201.344" y2="41.6701" gradientUnits="userSpaceOnUse">
<stop stop-color="#7770E0"/>
<stop offset="1" stop-color="#554FD8"/>
</linearGradient>
<linearGradient id="paint33_linear_14_2032" x1="201.294" y1="70.6102" x2="201.294" y2="31.4099" gradientUnits="userSpaceOnUse">
<stop stop-color="#7770E0"/>
<stop offset="1" stop-color="#554FD8"/>
</linearGradient>
<linearGradient id="paint34_linear_14_2032" x1="201.294" y1="61.5351" x2="201.294" y2="21.2761" gradientUnits="userSpaceOnUse">
<stop stop-color="#7770E0"/>
<stop offset="1" stop-color="#554FD8"/>
</linearGradient>
<linearGradient id="paint35_linear_14_2032" x1="201.395" y1="52.4701" x2="201.395" y2="11.0554" gradientUnits="userSpaceOnUse">
<stop stop-color="#7770E0"/>
<stop offset="1" stop-color="#554FD8"/>
</linearGradient>
<linearGradient id="paint36_linear_14_2032" x1="201.294" y1="43.5204" x2="201.294" y2="0.474761" gradientUnits="userSpaceOnUse">
<stop stop-color="#7770E0"/>
<stop offset="1" stop-color="#554FD8"/>
</linearGradient>
</defs>
</svg>
